# xmcd CD database file
#
# Track frame offsets:
#	150
#	15559
#	33751
#	47516
#	58943
#	72692
#	90822
#	108786
#	125926
#	140435
#	153302
#	168677
#	181402
#	195274
#	207236
#	218481
#	233080
#	247177
#	257647
#	277382
#	293121
#	310518
#
# Disc length: 4392 seconds
#
# Revision: 0
# Processed by: cddbd v1.5.1PL0 Copyright (c) Steve Scherf et al.
# Submitted via: CDex 1.51
#
DISCID=3e112616
DTITLE=Various Artist - 102 Deutsche Schlager
DYEAR=1900
DGENRE=Deutsche Schlager
TTITLE0=Volker Lechtenbrink - Lucille
TTITLE1=Michael Holm - Tränen lügen nicht
TTITLE2=Roy Black - Bleib bei mir
TTITLE3=Freddy Breck - Bianca
TTITLE4=Christian Anders - Einsamkeit hat viele Namen
TTITLE5=Roland Kaiser - Frei-das heißt allein
TTITLE6=Tommy Steiner - Das Märchen von Rhodos
TTITLE7=Nino de Angelo - Ich sterbe nicht nochmal
TTITLE8=Peter Alexander - Bist du einsam heut Nacht
TTITLE9=Roy Black - Frag nur dein Herz
TTITLE10=Karel Gott - Schicksalsmelodie
TTITLE11=Roy Black - Dein schönstes Geschenk
TTITLE12=Heinz Schachtner - Mitternachtsblues
TTITLE13=Connie Francis - Du mußt bleiben Angelino
TTITLE14=Roy Black - Du bist nicht allein
TTITLE15=Chris Roberts - Hab ich dir heute schon gesagt
TTITLE16=Die Blizzards - Ein Paradies auf Erden
TTITLE17=Peter Alexander - Wenn erst der Abend kommt
TTITLE18=Gheorghe Zamfir and das Orchester J. Last - Der einsame Hirte
TTITLE19=Curd Jürgens - 60 Jahre und kein bißchen weise
TTITLE20=Peter Cornelius - Streicheleinheiten
TTITLE21=Hans Hartz - Die weißen Tauben sind müde
EXTD=
EXTT0=
EXTT1=
EXTT2=
EXTT3=
EXTT4=
EXTT5=
EXTT6=
EXTT7=
EXTT8=
EXTT9=
EXTT10=
EXTT11=
EXTT12=
EXTT13=
EXTT14=
EXTT15=
EXTT16=
EXTT17=
EXTT18=
EXTT19=
EXTT20=
EXTT21=
PLAYORDER=
